<svg data-v-423bf9ae="" xmlns="http://www.w3.org/2000/svg" viewBox="0 0 44.85804091834322 60" class="font"><!----><!----><!----><g data-v-423bf9ae="" id="90349df9-11b1-4688-a3be-ad8b6ddf2e3c" fill="black" transform="matrix(4.731861084854148,0,0,4.731861084854148,-5.3470027000499805,-11.261830877145712)"><path d="M4.33 14.76C3.25 14.76 2.73 14.53 2.16 14.03C1.67 13.61 1.40 13.03 1.40 12.40C1.40 11.34 2.20 10.25 3.54 10.25C4.07 10.25 4.51 10.39 4.77 10.65C5.01 10.86 5.14 11.19 5.14 11.52C5.14 12.15 4.70 12.82 4.06 12.82C3.70 12.82 3.42 12.73 3.23 12.53C2.91 12.21 2.93 11.72 2.93 11.72L2.66 11.70C2.65 11.73 2.63 12.31 3.04 12.71C3.28 12.96 3.63 13.10 4.06 13.10C4.86 13.10 5.40 12.29 5.40 11.52C5.40 11.10 5.25 10.72 4.96 10.46C4.63 10.15 4.14 9.98 3.54 9.98C2.03 9.98 1.13 11.21 1.13 12.40C1.13 13.12 1.43 13.76 1.97 14.22C2.60 14.77 3.54 15.06 4.68 15.06C7.45 15.06 9.21 13.58 9.21 11.48C9.21 9.53 7.06 8.74 5.85 7.62C6.64 7.42 7.32 7.00 7.55 6.83C7.78 6.97 8.09 7.04 8.44 7.04C9.84 7.04 10.61 5.96 10.61 4.93C10.61 4.35 10.39 3.81 9.97 3.42C9.49 2.98 8.79 2.73 7.95 2.73C5.47 2.73 3.37 4.31 3.37 6.83C3.37 7.00 3.37 7.15 3.40 7.31C2.56 7.03 2.18 6.44 2.02 5.94C1.65 4.80 2.09 3.25 2.97 2.60L2.81 2.38C1.83 3.11 1.36 4.77 1.76 6.02C1.93 6.52 2.35 7.28 3.44 7.60C4.02 10.08 7.43 9.97 7.43 12.56C7.43 13.86 6.33 14.76 4.33 14.76ZM7.35 6.68C7.13 6.83 6.43 7.25 5.61 7.43C4.03 6.36 4.89 3.00 7.95 3.00C8.72 3.00 9.35 3.22 9.79 3.61C10.15 3.96 10.35 4.42 10.35 4.93C10.35 5.84 9.67 6.80 8.44 6.80C8.19 6.80 7.98 6.75 7.80 6.66C8.43 6.10 8.82 5.38 8.82 4.72C8.82 4.05 8.48 3.70 7.88 3.70C7.13 3.70 6.71 4.33 6.71 5.12C6.71 5.71 6.93 6.30 7.35 6.68ZM7.87 3.95C8.32 3.95 8.54 4.20 8.54 4.72C8.54 5.38 8.11 6.12 7.56 6.51C7.17 6.19 6.99 5.64 6.99 5.12C6.99 4.44 7.29 3.95 7.87 3.95Z"></path></g><!----><!----></svg>